<?xml version="1.0" encoding="UTF-8"?>
<svg id="Layer_1" data-name="Layer 1" xmlns="http://www.w3.org/2000/svg" xmlns:xlink="http://www.w3.org/1999/xlink" viewBox="0 0 500 500">
  <defs>
    <style>
      .cls-1 {
        fill: url(#linear-gradient);
      }

      .cls-1, .cls-2 {
        stroke-width: 0px;
      }

      .cls-2 {
        fill: #002854;
      }
    </style>
    <linearGradient id="linear-gradient" x1="190.84" y1="399.8" x2="305.89" y2="284.75" gradientUnits="userSpaceOnUse">
      <stop offset="0" stop-color="#00a0fb"/>
      <stop offset="1" stop-color="#00eb86"/>
    </linearGradient>
  </defs>
  <g>
    <path class="cls-2" d="M12.05,169.27v-69.36h34.78c4.56,0,8.59.94,12.09,2.82,3.5,1.88,6.23,4.46,8.17,7.73,1.95,3.27,2.92,7.02,2.92,11.25s-.98,7.76-2.92,11c-1.95,3.24-4.69,5.78-8.22,7.63-3.53,1.85-7.55,2.77-12.04,2.77h-20.41v26.16h-14.37ZM26.42,131.22h18.83c3.1,0,5.6-.87,7.48-2.63,1.88-1.75,2.82-4.01,2.82-6.79s-.94-5.23-2.82-6.99c-1.88-1.75-4.38-2.63-7.48-2.63h-18.83v19.02Z"/>
    <path class="cls-2" d="M78.54,169.27v-51.63h13.67v5.75c1.59-2.24,3.55-3.96,5.9-5.15,2.34-1.19,4.97-1.78,7.88-1.78,2.58.07,4.46.43,5.65,1.09v11.99c-1.06-.46-2.16-.83-3.32-1.09-1.16-.26-2.36-.4-3.62-.4-2.64,0-5.05.68-7.23,2.03-2.18,1.35-3.93,3.25-5.25,5.7v33.49h-13.67Z"/>
    <path class="cls-2" d="M125.8,111.51c-2.11,0-3.93-.76-5.45-2.28-1.52-1.52-2.28-3.37-2.28-5.55s.76-3.91,2.28-5.4c1.52-1.49,3.34-2.23,5.45-2.23s4.01.74,5.5,2.23c1.49,1.49,2.23,3.29,2.23,5.4s-.74,4.03-2.23,5.55c-1.49,1.52-3.32,2.28-5.5,2.28ZM119.06,169.27v-51.63h13.58v51.63h-13.58Z"/>
    <path class="cls-2" d="M143.34,169.27v-51.63h13.58v4.26c3.96-3.5,8.82-5.25,14.57-5.25,3.96,0,7.48.88,10.55,2.63,3.07,1.75,5.47,4.16,7.18,7.23,1.72,3.07,2.58,6.62,2.58,10.65v32.1h-13.48v-30.02c0-3.37-.98-6.03-2.92-7.98-1.95-1.95-4.58-2.92-7.88-2.92-2.31,0-4.36.45-6.14,1.34-1.78.89-3.27,2.16-4.46,3.81v35.77h-13.58Z"/>
    <path class="cls-2" d="M225.09,170.07c-5.68,0-9.99-1.3-12.93-3.91-2.94-2.61-4.41-6.39-4.41-11.35v-25.86h-10.6v-11.3h10.6v-13.18l13.48-3.07v16.25h14.86v11.3h-14.86v22.99c0,2.38.55,4.08,1.64,5.1,1.09,1.02,2.92,1.54,5.5,1.54,1.39,0,2.63-.08,3.72-.25,1.09-.16,2.29-.45,3.62-.84v11.1c-1.39.46-3.11.82-5.15,1.09-2.05.26-3.86.4-5.45.4Z"/>
    <path class="cls-2" d="M249.56,111.51c-2.11,0-3.93-.76-5.45-2.28-1.52-1.52-2.28-3.37-2.28-5.55s.76-3.91,2.28-5.4c1.52-1.49,3.34-2.23,5.45-2.23s4.01.74,5.5,2.23c1.49,1.49,2.23,3.29,2.23,5.4s-.74,4.03-2.23,5.55c-1.49,1.52-3.32,2.28-5.5,2.28ZM242.82,169.27v-51.63h13.58v51.63h-13.58Z"/>
    <path class="cls-2" d="M261.55,169.27l19.82-26.26-19.32-25.37h15.76l11.4,15.36,11.3-15.36h15.26l-19.02,25.17,20.12,26.46h-15.76l-12.19-16.45-12.09,16.45h-15.26Z"/>
    <path class="cls-2" d="M330.42,127.16v-24.47h-10.01v-2.77h23.09v2.77h-10.01v24.47h-3.07ZM348.75,127.16v-27.25h3.96l9.61,19.42,9.51-19.42h3.86v27.25h-3.07v-23.19l-10.4,21.3-10.4-21.3v23.19h-3.07Z"/>
  </g>
  <g>
    <path class="cls-2" d="M18.73,67.74v-23.62h-9.57v-3.62h23.23v3.62h-9.57v23.62h-4.09Z"/>
    <path class="cls-2" d="M41.3,68.13c-1.53,0-2.88-.32-4.05-.97-1.17-.65-2.08-1.56-2.74-2.74-.66-1.18-.99-2.52-.99-4.03v-12.45h3.89v11.79c0,1.53.45,2.75,1.34,3.66.9.91,2.09,1.36,3.6,1.36,1.04,0,1.98-.23,2.82-.68.84-.45,1.52-1.1,2.04-1.93v-14.2h3.89v19.81h-3.89v-2.02c-1.53,1.61-3.5,2.41-5.92,2.41Z"/>
    <path class="cls-2" d="M55.7,67.74v-19.81h3.89v2.02c1.53-1.61,3.52-2.41,5.95-2.41,1.53,0,2.87.33,4.03.97,1.15.65,2.06,1.56,2.72,2.72.66,1.17.99,2.52.99,4.05v12.45h-3.89v-11.79c0-1.56-.44-2.78-1.32-3.68-.88-.9-2.09-1.34-3.62-1.34-1.04,0-1.97.23-2.78.68-.82.45-1.51,1.1-2.08,1.93v14.2h-3.89Z"/>
    <path class="cls-2" d="M87.54,76.07c-1.43,0-2.83-.17-4.2-.51-1.38-.34-2.62-.82-3.74-1.44l1.52-3.04c1.14.57,2.22.99,3.25,1.26,1.02.27,2.04.41,3.05.41,1.76,0,3.09-.39,3.99-1.17s1.34-1.95,1.34-3.5v-2.26c-1.71,1.38-3.7,2.06-5.95,2.06-1.84,0-3.52-.45-5.02-1.36-1.51-.91-2.7-2.13-3.6-3.68-.9-1.54-1.34-3.25-1.34-5.12s.45-3.61,1.36-5.16c.91-1.54,2.12-2.76,3.64-3.66,1.52-.9,3.21-1.34,5.08-1.34,1.09,0,2.13.17,3.13.51,1,.34,1.93.84,2.78,1.52v-1.67h3.81v20.12c0,2.59-.78,4.58-2.34,5.95-1.56,1.37-3.81,2.06-6.77,2.06ZM87.3,64.55c1.11,0,2.15-.21,3.09-.62.95-.41,1.73-.99,2.35-1.71v-8.95c-.6-.7-1.38-1.26-2.34-1.67-.96-.41-2-.62-3.11-.62-1.25,0-2.37.29-3.37.88-1,.58-1.79,1.39-2.37,2.41-.58,1.03-.88,2.19-.88,3.48s.29,2.42.88,3.44c.58,1.03,1.38,1.84,2.39,2.45,1.01.61,2.13.91,3.35.91Z"/>
    <path class="cls-2" d="M108.08,68.13c-1.71,0-3.31-.25-4.81-.76-1.49-.51-2.78-1.24-3.87-2.2l2.1-2.57c1.04.83,2.1,1.45,3.19,1.87,1.09.42,2.18.62,3.27.62,1.4,0,2.54-.27,3.42-.8.88-.53,1.32-1.24,1.32-2.12,0-.73-.26-1.3-.78-1.71-.52-.41-1.32-.7-2.41-.86l-3.58-.51c-2-.29-3.48-.9-4.46-1.83s-1.46-2.18-1.46-3.74c0-1.17.32-2.2.97-3.11.65-.91,1.56-1.61,2.72-2.1,1.17-.49,2.52-.74,4.05-.74s2.87.2,4.18.6c1.31.4,2.57,1.04,3.79,1.93l-1.95,2.57c-1.12-.73-2.18-1.26-3.19-1.6-1.01-.34-2.05-.51-3.11-.51-1.19,0-2.15.25-2.88.76-.73.51-1.09,1.16-1.09,1.97,0,.75.26,1.32.78,1.69.52.38,1.34.66,2.45.84l3.62.51c1.97.29,3.46.9,4.48,1.83,1.01.93,1.52,2.18,1.52,3.74,0,1.17-.37,2.22-1.11,3.17-.74.95-1.73,1.69-2.96,2.24-1.23.54-2.64.82-4.22.82Z"/>
    <path class="cls-2" d="M127.39,68.09c-1.89,0-3.35-.44-4.36-1.32-1.01-.88-1.52-2.19-1.52-3.93v-11.64h-4.2v-3.27h4.2v-5.02l3.85-.97v5.99h5.88v3.27h-5.88v10.78c0,.99.23,1.69.68,2.12.45.43,1.2.64,2.24.64.54,0,1.03-.04,1.46-.12s.89-.21,1.38-.39v3.31c-.52.18-1.12.32-1.81.41-.69.09-1.33.14-1.93.14Z"/>
    <path class="cls-2" d="M143.23,68.09c-1.95,0-3.7-.45-5.27-1.34s-2.82-2.13-3.76-3.7c-.93-1.57-1.4-3.31-1.4-5.23s.45-3.64,1.34-5.18c.9-1.53,2.09-2.76,3.6-3.68,1.5-.92,3.19-1.38,5.06-1.38s3.44.46,4.88,1.38c1.44.92,2.58,2.17,3.42,3.74.84,1.57,1.26,3.34,1.26,5.31v1.05h-15.64c.18,1.12.58,2.1,1.19,2.94.61.84,1.39,1.52,2.35,2.02.96.51,2,.76,3.11.76.99,0,1.92-.16,2.8-.47.88-.31,1.62-.73,2.22-1.25l2.45,2.41c-1.12.88-2.3,1.54-3.54,1.97-1.25.43-2.61.64-4.09.64ZM136.77,56.15h11.75c-.18-1.01-.55-1.91-1.11-2.7-.56-.79-1.24-1.41-2.04-1.87-.8-.45-1.7-.68-2.69-.68s-1.89.23-2.72.68c-.83.45-1.52,1.07-2.08,1.85-.56.78-.93,1.69-1.11,2.72Z"/>
    <path class="cls-2" d="M156.07,67.74v-19.81h3.89v2.02c1.53-1.61,3.52-2.41,5.95-2.41,1.53,0,2.87.33,4.03.97,1.15.65,2.06,1.56,2.72,2.72.66,1.17.99,2.52.99,4.05v12.45h-3.89v-11.79c0-1.56-.44-2.78-1.32-3.68-.88-.9-2.09-1.34-3.62-1.34-1.04,0-1.97.23-2.78.68-.82.45-1.51,1.1-2.08,1.93v14.2h-3.89Z"/>
  </g>
  <g>
    <path class="cls-2" d="M346.61,464.21h-201.15c-7.17,0-13.01-5.83-13.01-13.01v-239.51c0-7.17,5.83-13.01,13.01-13.01h162.49c3.47,0,6.74,1.35,9.2,3.81l38.67,38.67c2.46,2.46,3.81,5.72,3.81,9.2v200.85c0,7.17-5.83,13.01-13.01,13.01ZM148.83,447.83h194.41v-196.08l-36.69-36.69h-157.72v232.77Z"/>
    <path class="cls-1" d="M304.92,296.08c-2.18-19.86-19.06-35.36-39.49-35.36-14.7,0-27.98,8.08-34.85,20.66-2.04-.35-4.12-.53-6.23-.53-15.28,0-28.77,9.54-34.12,23.42-16.93.87-30.44,14.92-30.44,32.06s14.4,32.1,32.1,32.1h12.59v40.02c0,6.64,5.4,12.04,12.04,12.04h56.41c6.64,0,12.04-5.4,12.04-12.04v-40.02h12.59c20.15,0,36.55-16.4,36.55-36.55,0-17.57-12.58-32.38-29.2-35.8ZM270.53,406.05h-51.6v-63.65h51.6v63.65ZM297.57,353.99h-12.59v-13.99c0-6.64-5.4-12.04-12.04-12.04h-56.41c-6.64,0-12.04,5.4-12.04,12.04v13.99h-12.59c-9.73,0-17.65-7.92-17.65-17.65s7.92-17.65,17.65-17.65c.88,0,1.76.06,2.6.19l6.83,1.03,1.34-6.78c2.03-10.33,11.16-17.82,21.69-17.82,2.7,0,5.31.47,7.74,1.41l7.01,2.68,2.42-7.1c3.49-10.24,13.1-17.12,23.91-17.12,13.94,0,25.28,11.34,25.28,25.28,0,.55-.02,1.1-.05,1.65l-.49,7.61,7.63.08c12.06.12,21.88,10.03,21.88,22.1s-9.91,22.1-22.1,22.1ZM263.26,366.99h-37.06v-11.56h37.06v11.56ZM263.26,393.02h-37.06v-11.56h37.06v11.56Z"/>
  </g>
</svg>